HIERARCHY
ROOT Hips
{
    OFFSET   0.000000   0.000000   0.000000
    CHANNELS 6 Xposition Yposition Zposition Zrotation Xrotation Yrotation
    JOINT Chest
    {
        OFFSET   0.000000   8.007230   0.000000
        CHANNELS 3 Zrotation Xrotation Yrotation
        JOINT Chest2
        {
            OFFSET   0.000000  22.077100   0.000000
            CHANNELS 3 Zrotation Xrotation Yrotation
            JOINT Neck
            {
                OFFSET   0.000000  23.255100   0.000000
                CHANNELS 3 Zrotation Xrotation Yrotation
                JOINT Head
                {
                    OFFSET   0.000000  14.370100   1.956600
                    CHANNELS 3 Zrotation Xrotation Yrotation
                    End Site
                    {
                        OFFSET   0.000000  19.566000   0.000000
                    }
                }
            }
            JOINT LeftCollar
            {
                OFFSET   3.911900  19.017000  -0.467063
                CHANNELS 3 Zrotation Xrotation Yrotation
                JOINT LeftShoulder
                {
                    OFFSET  10.383700   0.000000   0.000000
                    CHANNELS 3 Zrotation Xrotation Yrotation
                    JOINT LeftElbow
                    {
                        OFFSET  26.662100   0.001193   0.000980
                        CHANNELS 3 Zrotation Xrotation Yrotation
                        JOINT LeftWrist
                        {
                            OFFSET  28.869000  -0.000059  -0.000082
                            CHANNELS 3 Zrotation Xrotation Yrotation
                            JOINT LeftFinger0
                            {
                                OFFSET   2.044650  -2.323450   3.252850
                                CHANNELS 3 Zrotation Xrotation Yrotation
                                JOINT LeftFinger01
                                {
                                    OFFSET   3.088130   0.000000   0.000000
                                    CHANNELS 3 Zrotation Xrotation Yrotation
                                    JOINT LeftFinger02
                                    {
                                        OFFSET   2.639460   0.000000   0.000000
                                        CHANNELS 3 Zrotation Xrotation Yrotation
                                        End Site
                                        {
                                            OFFSET   2.582190   0.000000   0.000000
                                        }
                                    }
                                }
                            }
                            JOINT LeftFinger1
                            {
                                OFFSET   8.364480   0.000000   3.252850
                                CHANNELS 3 Zrotation Xrotation Yrotation
                                JOINT LeftFinger11
                                {
                                    OFFSET   4.646930   0.000000   0.000000
                                    CHANNELS 3 Zrotation Xrotation Yrotation
                                    JOINT LeftFinger12
                                    {
                                        OFFSET   2.323470   0.000000   0.000000
                                        CHANNELS 3 Zrotation Xrotation Yrotation
                                        End Site
                                        {
                                            OFFSET   2.273050   0.000000   0.000000
                                        }
                                    }
                                }
                            }
                            JOINT LeftFinger2
                            {
                                OFFSET   8.364490   0.000016   1.078090
                                CHANNELS 3 Zrotation Xrotation Yrotation
                                JOINT LeftFinger21
                                {
                                    OFFSET   5.111610   0.000000   0.000000
                                    CHANNELS 3 Zrotation Xrotation Yrotation
                                    JOINT LeftFinger22
                                    {
                                        OFFSET   2.788150   0.000016   0.000000
                                        CHANNELS 3 Zrotation Xrotation Yrotation
                                        End Site
                                        {
                                            OFFSET   2.727660   0.000000   0.000000
                                        }
                                    }
                                }
                            }
                            JOINT LeftFinger3
                            {
                                OFFSET   7.899780   0.000015  -1.078090
                                CHANNELS 3 Zrotation Xrotation Yrotation
                                JOINT LeftFinger31
                                {
                                    OFFSET   4.646930   0.000000   0.000000
                                    CHANNELS 3 Zrotation Xrotation Yrotation
                                    JOINT LeftFinger32
                                    {
                                        OFFSET   2.323470   0.000000   0.000000
                                        CHANNELS 3 Zrotation Xrotation Yrotation
                                        End Site
                                        {
                                            OFFSET   2.273050   0.000000   0.000000
                                        }
                                    }
                                }
                            }
                            JOINT LeftFinger4
                            {
                                OFFSET   7.435090   0.000000  -3.252850
                                CHANNELS 3 Zrotation Xrotation Yrotation
                                JOINT LeftFinger41
                                {
                                    OFFSET   3.717550   0.000000   0.000000
                                    CHANNELS 3 Zrotation Xrotation Yrotation
                                    JOINT LeftFinger42
                                    {
                                        OFFSET   1.858770   0.000000   0.000000
                                        CHANNELS 3 Zrotation Xrotation Yrotation
                                        End Site
                                        {
                                            OFFSET   1.818440   0.000000   0.000000
                                        }
                                    }
                                }
                            }
                        }
                    }
                }
            }
            JOINT RightCollar
            {
                OFFSET  -3.911910  19.017000  -0.467062
                CHANNELS 3 Zrotation Xrotation Yrotation
                JOINT RightShoulder
                {
                    OFFSET -10.383700   0.000014   0.000000
                    CHANNELS 3 Zrotation Xrotation Yrotation
                    JOINT RightElbow
                    {
                        OFFSET -26.662100   0.001225   0.001091
                        CHANNELS 3 Zrotation Xrotation Yrotation
                        JOINT RightWrist
                        {
                            OFFSET -28.869000  -0.000020  -0.000085
                            CHANNELS 3 Zrotation Xrotation Yrotation
                            JOINT RightFinger0
                            {
                                OFFSET  -2.044650  -2.323490   3.252850
                                CHANNELS 3 Zrotation Xrotation Yrotation
                                JOINT RightFinger01
                                {
                                    OFFSET  -3.088130   0.000000   0.000000
                                    CHANNELS 3 Zrotation Xrotation Yrotation
                                    JOINT RightFinger02
                                    {
                                        OFFSET  -2.639460   0.000000   0.000000
                                        CHANNELS 3 Zrotation Xrotation Yrotation
                                        End Site
                                        {
                                            OFFSET  -2.582190   0.000000   0.000000
                                        }
                                    }
                                }
                            }
                            JOINT RightFinger1
                            {
                                OFFSET  -8.364480   0.000000   3.252850
                                CHANNELS 3 Zrotation Xrotation Yrotation
                                JOINT RightFinger11
                                {
                                    OFFSET  -4.646930   0.000000   0.000000
                                    CHANNELS 3 Zrotation Xrotation Yrotation
                                    JOINT RightFinger12
                                    {
                                        OFFSET  -2.323470   0.000000   0.000000
                                        CHANNELS 3 Zrotation Xrotation Yrotation
                                        End Site
                                        {
                                            OFFSET  -2.273050   0.000000   0.000000
                                        }
                                    }
                                }
                            }
                            JOINT RightFinger2
                            {
                                OFFSET  -8.364480   0.000000   1.078090
                                CHANNELS 3 Zrotation Xrotation Yrotation
                                JOINT RightFinger21
                                {
                                    OFFSET  -5.111620   0.000000   0.000000
                                    CHANNELS 3 Zrotation Xrotation Yrotation
                                    JOINT RightFinger22
                                    {
                                        OFFSET  -2.788160   0.000000   0.000000
                                        CHANNELS 3 Zrotation Xrotation Yrotation
                                        End Site
                                        {
                                            OFFSET  -2.727660   0.000000   0.000000
                                        }
                                    }
                                }
                            }
                            JOINT RightFinger3
                            {
                                OFFSET  -7.899780   0.000000  -1.078090
                                CHANNELS 3 Zrotation Xrotation Yrotation
                                JOINT RightFinger31
                                {
                                    OFFSET  -4.646930   0.000000   0.000000
                                    CHANNELS 3 Zrotation Xrotation Yrotation
                                    JOINT RightFinger32
                                    {
                                        OFFSET  -2.323470   0.000000   0.000000
                                        CHANNELS 3 Zrotation Xrotation Yrotation
                                        End Site
                                        {
                                            OFFSET  -2.273050   0.000000   0.000000
                                        }
                                    }
                                }
                            }
                            JOINT RightFinger4
                            {
                                OFFSET  -7.435090   0.000000  -3.252850
                                CHANNELS 3 Zrotation Xrotation Yrotation
                                JOINT RightFinger41
                                {
                                    OFFSET  -3.717550   0.000000   0.000000
                                    CHANNELS 3 Zrotation Xrotation Yrotation
                                    JOINT RightFinger42
                                    {
                                        OFFSET  -1.858760   0.000000   0.000000
                                        CHANNELS 3 Zrotation Xrotation Yrotation
                                        End Site
                                        {
                                            OFFSET  -1.818440   0.000000   0.000000
                                        }
                                    }
                                }
                            }
                        }
                    }
                }
            }
        }
    }
    JOINT LeftHip
    {
        OFFSET   9.783030   0.000000   0.000000
        CHANNELS 3 Zrotation Xrotation Yrotation
        JOINT LeftKnee
        {
            OFFSET   0.000063 -41.789100   0.000608
            CHANNELS 3 Zrotation Xrotation Yrotation
            JOINT LeftAnkle
            {
                OFFSET   0.000048 -41.133200  -0.000184
                CHANNELS 3 Zrotation Xrotation Yrotation
                JOINT LeftToe
                {
                    OFFSET   0.000000  -6.358960  14.674500
                    CHANNELS 3 Zrotation Xrotation Yrotation
                    End Site
                    {
                        OFFSET   0.000000   0.000000   3.913200
                    }
                }
            }
        }
    }
    JOINT RightHip
    {
        OFFSET  -9.783030   0.000000   0.000000
        CHANNELS 3 Zrotation Xrotation Yrotation
        JOINT RightKnee
        {
            OFFSET   0.000071 -41.789100   0.001239
            CHANNELS 3 Zrotation Xrotation Yrotation
            JOINT RightAnkle
            {
                OFFSET   0.000037 -41.133200  -0.000166
                CHANNELS 3 Zrotation Xrotation Yrotation
                JOINT RightToe
                {
                    OFFSET   0.000000  -6.358960  14.674500
                    CHANNELS 3 Zrotation Xrotation Yrotation
                    End Site
                    {
                        OFFSET   0.000000   0.000000   3.913200
                    }
                }
            }
        }
    }
}
MOTION
Frames: 6
Frame Time:   0.016667
  0.061726  89.575800  -0.366183  -2.618070  -8.105000  -2.955830   0.967310   4.439800  -0.461669   1.979540   8.870960  -1.003250   1.341070  -0.533933   0.010014   2.226410  -1.072210   6.970860  -5.101160  -0.192063   3.492380 -72.062400  28.188200  -1.721680  -2.737760  -9.418240 -15.707100  16.525600 -17.052100   5.378550  36.290300  27.144400 -59.408300 -31.591500   0.001783   0.003331 -10.802000   0.011774  -0.000058 -35.131400   7.394010 -10.373200 -29.292200   0.002812   0.011676 -20.504600   0.007007   0.008974 -29.318100   0.339684  -0.603837 -43.979900   0.002721   0.010578 -29.290600   0.000346   0.004795 -28.682300   0.044622  -0.077856 -38.694500  -0.000716  -0.001264 -25.770500   0.003956  -0.000499 -34.692400   0.052894  -0.072975 -52.038600   0.013237   0.000580 -34.657800  -0.005651   0.003152  10.041800   1.852870   9.270400  66.811700  24.116500  -3.907170  -0.176855  -5.002330  11.275300 -18.172200 -15.372300  -2.809810 -38.340700  26.726300  66.466400  23.951700   0.002610  -0.006565   6.975850   0.002383  -0.003466  31.022700   7.415910  12.123000  26.026800  -0.007650   0.000447  18.231000  -0.002625   0.000000  28.297100   2.920570   5.412510  35.359700   0.000075   0.005631  23.549600   0.004209   0.005196  27.355600   1.129470   2.181360  28.644800  -0.000145   0.003877  19.077500  -0.005270   0.000405  35.717300   0.060037   0.095087  53.576200   0.000000   0.005309  35.681700   0.003294   0.003881   2.425430  10.474900   4.731990   1.025140  -0.002366  12.153900  -2.574930  -2.867580   1.398950  -0.000000   0.000000  -0.000000   2.144200   9.852360  -0.040348   0.184803   1.174650 -12.392800  -0.572314  -3.866930  -0.659218  -0.000000   0.000000   0.000000
  0.061884  89.575800  -0.358994  -2.618440  -8.111580  -2.956180   0.967347   4.442120  -0.461382   1.979620   8.875630  -1.002720   1.340980  -0.530207   0.010019   2.222660  -1.068460   6.960730  -5.101050  -0.195165   3.487680 -72.062900  28.176000  -1.721230  -2.735800  -9.411250 -15.706700  16.519300 -17.052100   5.379340  36.298400  27.149800 -59.400300 -31.591200   0.001774   0.003347 -10.802000   0.011785  -0.000029 -35.120100   7.394000 -10.373100 -29.283600   0.002800   0.011667 -20.498600   0.007005   0.008969 -29.311800   0.339730  -0.599044 -43.970400   0.002718   0.010572 -29.284300   0.000338   0.004785 -28.682300   0.044666  -0.077796 -38.676400  -0.000736  -0.001266 -25.758400   0.003951  -0.000521 -34.685200   0.052948  -0.072919 -52.027700   0.013238   0.000567 -34.650600  -0.005650   0.003142  10.042500   1.848600   9.270410  66.801700  24.111400  -3.908330  -0.174862  -5.001000  11.265100 -18.177600 -15.372300  -2.831910 -38.334700  26.726400  66.466400  23.962300   0.002611  -0.006561   6.981140   0.002382  -0.003465  31.031700   7.416360  12.116900  26.034000  -0.007650   0.000451  18.231000  -0.002618  -0.000000  28.297400   2.919740   5.408960  35.372100   0.000077   0.005630  23.558000   0.004228   0.005197  27.355800   1.127840   2.178080  28.651800  -0.000142   0.003874  19.082200  -0.005271   0.000404  35.724500   0.060060   0.095168  53.586900   0.000000   0.005310  35.688800   0.003295   0.003879   2.424310  10.485800   4.732430   1.023700  -0.002303  12.154000  -2.573850  -2.870370   1.397960  -0.000000   0.000000   0.000000   2.148760   9.862760  -0.040345   0.184962   1.179910 -12.399500  -0.572076  -3.874860  -0.660658   0.000000   0.000000   0.000000
  0.062042  89.575800  -0.346807  -2.618970  -8.121450  -2.956560   0.967426   4.446560  -0.460421   1.979760   8.884540  -1.000880   1.340900  -0.523730   0.010026   2.216960  -1.060250   6.943660  -5.100800  -0.202194   3.479330 -72.063400  28.163800  -1.720790  -2.733850  -9.404250 -15.706400  16.514000 -17.052000   5.383450  36.309600  27.158400 -59.387900 -31.591000   0.001758   0.003362 -10.801900   0.011809  -0.000000 -35.104800   7.394000 -10.373100 -29.271900   0.002770   0.011645 -20.490300   0.006999   0.008954 -29.302600   0.339827  -0.594250 -43.956700   0.002707   0.010556 -29.275200   0.000318   0.004760 -28.682300   0.044759  -0.077687 -38.655700  -0.000785  -0.001272 -25.744700   0.003934  -0.000578 -34.673900   0.053058  -0.072816 -52.010800   0.013242   0.000534 -34.639300  -0.005646   0.003117  10.044100   1.839210   9.270400  66.785500  24.104300  -3.915400  -0.169711  -4.999810  11.246800 -18.182700 -15.372100  -2.862730 -38.320000  26.726500  66.466200  23.982600   0.002612  -0.006556   6.991290   0.002381  -0.003463  31.044500   7.416910  12.107000  26.044300  -0.007649   0.000455  18.231000  -0.002595   0.000000  28.298100   2.916640   5.400530  35.391000   0.000081   0.005629  23.570400   0.004274   0.005201  27.356200   1.123730   2.170010  28.658800  -0.000137   0.003865  19.086800  -0.005273   0.000404  35.735600   0.060109   0.095319  53.603500   0.000000   0.005312  35.699900   0.003297   0.003872   2.422720  10.502100   4.732950   1.022180  -0.001859  12.154000  -2.572800  -2.875990   1.394920   0.000000   0.000000  -0.000000   2.155760   9.879930  -0.040342   0.185123   1.185170 -12.406200  -0.572023  -3.887620  -0.664014  -0.000000   0.000000  -0.000000
  0.062036  89.575900  -0.336834  -2.618940  -8.126650  -2.954790   0.967541   4.451280  -0.458572   1.979900   8.893990  -0.997266   1.341040  -0.518100   0.010032   2.213350  -1.049480   6.929720  -5.100400  -0.212476   3.471230 -72.059200  28.167800  -1.722630  -2.733000  -9.409870 -15.706700  16.525600 -17.053900   5.394060  36.313200  27.164900 -59.377800 -31.592700   0.001742   0.003356 -10.801700   0.011837  -0.000000 -35.099100   7.398120 -10.373100 -29.267600   0.002726   0.011615 -20.487300   0.006987   0.008932 -29.297800   0.339958  -0.602350 -43.949400   0.002682   0.010530 -29.270300   0.000287   0.004721 -28.682300   0.044885  -0.077545 -38.652800  -0.000859  -0.001283 -25.742800   0.003905  -0.000665 -34.665000   0.053207  -0.072680 -51.997500   0.013252   0.000483 -34.630400  -0.005639   0.003080  10.046500   1.825990   9.270310  66.773700  24.101700  -3.932220  -0.160936  -5.006630  11.230200 -18.173300 -15.371900  -2.873260 -38.303900  26.729800  66.469800  24.006000   0.002610  -0.006558   7.003030   0.002392  -0.003464  31.050600   7.415540  12.099300  26.049100  -0.007646   0.000456  18.230100  -0.002555  -0.000000  28.299400   2.909770   5.387240  35.404300   0.000083   0.005628  23.578300   0.004345   0.005205  27.356800   1.115480   2.155110  28.657100  -0.000130   0.003848  19.085700  -0.005277   0.000400  35.744300   0.060179   0.095518  53.616600   0.000000   0.005309  35.708600   0.003299   0.003859   2.422520  10.512900   4.731850   1.022320  -0.001052  12.153900  -2.573010  -2.879390   1.389450  -0.000000   0.000000   0.000000   2.160310   9.892720  -0.040355   0.185010   1.184660 -12.404700  -0.572615  -3.896800  -0.668128   0.000000   0.000000   0.000000
  0.061993  89.575900  -0.326203  -2.618500  -8.131360  -2.950460   0.967637   4.456720  -0.456278   1.979980   8.904900  -0.992767   1.341360  -0.511920   0.010038   2.210760  -1.036540   6.915350  -5.099940  -0.223473   3.463250 -72.050700  28.175800  -1.726630  -2.731600  -9.418550 -15.707100  16.542300 -17.057800   5.405430  36.313200  27.168400 -59.371500 -31.596300   0.001724   0.003344 -10.801600   0.011874   0.000000 -35.097400   7.402240 -10.373200 -29.266500   0.002673   0.011578 -20.486500   0.006970   0.008902 -29.295700   0.340090  -0.610450 -43.946300   0.002651   0.010497 -29.268200   0.000246   0.004672 -28.682300   0.045011  -0.077454 -38.652400  -0.000951  -0.001297 -25.742500   0.003868  -0.000773 -34.660100   0.053354  -0.072593 -51.990300   0.013265   0.000419 -34.625500  -0.005629   0.003034  10.049500   1.811850   9.270200  66.763600  24.100200  -3.954350  -0.148686  -5.018070  11.211400 -18.158000 -15.371400  -2.879490 -38.291500  26.734400  66.475100  24.029400   0.002607  -0.006561   7.014730   0.002402  -0.003466  31.053900   7.411770  12.091900  26.050900  -0.007640   0.000456  18.228500  -0.002504  -0.000000  28.300700   2.902340   5.373480  35.411100   0.000084   0.005627  23.582100   0.004431   0.005210  27.357200   1.109700   2.143100  28.648600  -0.000122   0.003825  19.080000  -0.005281   0.000398  35.749100   0.060252   0.095647  53.623700   0.000000   0.005305  35.713300   0.003303   0.003843   2.423810  10.518200   4.728940   1.023600   0.003071  12.153800  -2.573200  -2.890200   1.382530  -0.000000   0.000000  -0.000000   2.163740   9.906390  -0.040368   0.184727   1.183580 -12.401000  -0.573360  -3.905480  -0.674553   0.000000   0.000000   0.000000
  0.060567  89.575900  -0.314411  -2.617850  -8.137680  -2.944070   0.967685   4.462960  -0.454118   1.980040   8.917450  -0.988567   1.341580  -0.504777   0.010044   2.209760  -1.022240   6.900630  -5.099500  -0.232158   3.456780 -72.040400  28.186900  -1.731880  -2.730300  -9.423940 -15.707300  16.555300 -17.063400   5.411700  36.310500  27.168300 -59.370700 -31.602200   0.001697   0.003331 -10.801500   0.011920   0.000000 -35.106000   7.402020 -10.373200 -29.273000   0.002616   0.011532 -20.491100   0.006946   0.008866 -29.301500   0.340188  -0.606938 -43.954900   0.002617   0.010459 -29.273900   0.000191   0.004614 -28.682300   0.045103  -0.077466 -38.671100  -0.001055  -0.001313 -25.754900   0.003825  -0.000895 -34.670000   0.053463  -0.072605 -52.006900   0.013276   0.000346 -34.635400  -0.005619   0.002980  10.051800   1.800510   9.270120  66.755300  24.098300  -3.978620  -0.133535  -5.028120  11.189700 -18.141500 -15.363300  -2.888180 -38.285200  26.736600  66.477600  24.046300   0.002615  -0.006557   7.023180   0.002396  -0.003471  31.046400   7.403970  12.084300  26.043600  -0.007633   0.000457  18.226500  -0.002445  -0.000037  28.301700   2.896710   5.362920  35.403100   0.000083   0.005620  23.577600   0.004527   0.005218  27.357200   1.109870   2.140890  28.625000  -0.000111   0.003795  19.064200  -0.005286   0.000398  35.738000   0.060320   0.095629  53.607100   0.000000   0.005301  35.702300   0.003307   0.003824   2.427550  10.507100   4.723920   1.025270   0.050505  12.154200  -2.579170  -2.923850   1.374350  -0.000000   0.000000  -0.000000   2.165350   9.922930  -0.040356   0.183388   1.182740 -12.395800  -0.574058  -3.913950  -0.683858   0.000000   0.000000   0.000000
